<svg xmlns="http://www.w3.org/2000/svg" xmlns:xlink="http://www.w3.org/1999/xlink" id="Ebene_1" x="0px" y="0px" viewBox="0 0 960 320" style="enable-background:new 0 0 960 320;" xml:space="preserve"><style type="text/css">	.st0{fill:#FFFFFF;}			.st1{clip-path:url(#SVGID_00000087413845034843664950000006998931386015083692_);fill:url(#Verlauf_00000096762547938996063950000018148877214428957068_);}	.st2{fill:#231F20;}	.st3{enable-background:new    ;}</style><g id="Ebene_4">	<path class="st0" d="M338.7046,132.7512c-1.814,1.5468-4.3937,1.252-5.7402-0.4843c-0.8623-1.1119-0.9744-2.6044,0.0854-3.9051  c1.1713-1.4377,3.1079-1.8355,4.7808-0.9929C340.0077,128.4657,340.6546,131.0884,338.7046,132.7512z"></path></g><g id="Schnittmaske-Verlauf"></g><g id="Schrift__x2B__Emu">	<g>		<g>			<g>				<defs>					<path id="SVGID_1_" d="M139.0747,299.4047c-5.713-1.1834-13.8311-3.2861-19.3465-4.8189      c-5.6625-1.5737-9.4252-3.8976-14.1802-8.7627c-1.5274,1.0578-1.2326,2.1067-0.6426,2.8867      c1.0858,1.4359,1.5014,3.1561,2.1499,4.743c1.4111,3.4527,0.4131,10.0621-1.3586,14.0306      c-3.7559-2.9764-5.8589-13.2011-6.0945-19.2756c-2.1484-0.0067-2.8424-0.6141-4.1347-3.1293      c-0.3688-2.0471,0.8755-4.0311,1.5775-5.8425c2.2855-5.8978,2.0954-11.9195,1.8974-17.9797      c-0.0848-2.5978-0.0381-5.184-0.0482-7.7696c-0.035-8.9678,1.5301-17.8928,0.9384-26.8355      c-0.7652-11.5657-0.5085-23.1363-0.8799-34.6957c-0.1187-3.6949-0.9686-7.5121-1.6904-11.2415      c-1.0589-5.4708-1.2974-11.3765,0.4506-16.9944c0.8091-2.6003,1.1787-5.3189,2.2047-7.8666      c0.4279-1.0625,0.7644-2.1084,1.8764-2.6512c2.3428-0.2302,2.0393,2.1219,2.9639,3.0975      c0.9773,0.5023,1.7892,0.0657,2.6331,0.0078c1.9233-0.132,3.8376,0.3109,4.5302,2.4011      c0.5822,1.7569,1.6735,2.9991,3.0212,4.005c1.0138,6.8336,0.3649,13.1685-3.8454,18.8638      c-1.1514,1.5576-1.7646,3.4588-2.0411,5.5224c-1.0898,8.1325-1.6062,16.2972-2.2224,24.4723      c-0.6176,8.1935-0.7514,16.3934-1.0632,24.577c-0.4793,12.5781-0.1246,25.1861-0.2746,37.7797      c-0.0432,3.6286,0.8581,7.0014,2.6185,9.9657c1.8753,3.1577,5.4875,4.1512,8.8355,5.1061      c6.5257,1.8613,7.3633,2.325,13.692,4.806C133.2276,294.8201,138.4369,294.3732,139.0747,299.4047z M360.2715,144.0426      c-12.5314-5.7874-23.5157-6.1772-25.996-5.3268c-0.8603,0.295,1.8217,1.8621,4.2874,2.374      c2.8121,0.5839,10.1723,0.8616,13.7156,2.4915c2.5392,1.168-5.0249,2.6319-11.3771,1.6896      c-7.3315-1.0875-9.5718,2.8975-10.6218,8.7826c-0.3302,1.8509-0.51,3.5541-1.7134,5.1154      c-0.9752,1.265-1.2885,2.9065-1.8212,4.4312c-2.0876,5.9757-5.2388,11.5453-8.7252,16.7067      c-3.1827,4.7115-7.6514,8.461-12.4684,11.9391c-4.9631,3.5836-9.6194,5.3951-15.6846,5.0804      c-3.9724-0.2061-7.9289,0.1114-11.7755-1.2236c-0.5545-0.1924-1.3218-0.239-1.8351-0.008      c-3.5709,1.6071-5.9803-0.7341-8.8442-2.1799c-3.9288-1.9833-7.0801-4.6198-9.7687-8.0526      c-0.8565-1.0936-2.4828-1.6241-3.8143-2.2995c-5.9099-2.9978-10.4255-7.9605-16.006-11.3659      c-3.2022-1.954-4.876-4.647-5.7999-7.876c-0.4509-0.1539-0.7821-0.3745-0.8998-0.2916      c-3.4278,2.413-5.9613,1.0371-8.1601-1.8712c-0.4567-0.604-0.9916-1.2612-1.8001-1.1984      c-2.56,0.1989-3.7575-1.5005-4.6365-3.1726c-1.5212-0.8904-2.9627-0.4411-4.6404-0.8394      c-1.3904-2.673-3.9244-3.7447-7.0215-4.8305c-3.2076-1.1246-5.5511-4.4151-7.0563-7.809c-0.2485-0.5604-0.5033-1.118-0.77-1.71      c-3.4685-1.0505-5.7455,0.7172-8.0251,3.3878c-5.9907-0.6395-11.7853,0.684-17.6478,0.1327      c-3.5897-0.3376-6.9326-1.6995-10.5896-1.9471c-2.72-0.1842-5.1559-0.0782-7.538,1.0172      c-1.2426,0.5714-2.3052,0.8681-3.4598-0.0384c-0.9503-0.7462-2.1171-0.8258-3.2166-0.7303      c-2.1879,0.1899-3.8269-0.7244-5.1725-2.1255c-1.9401-5.2965,3.6523-7.5219,4.6257-11.6154      c-1.1838-1.8649-2.8184-1.2327-4.3535-1.0345c-3.7019,4.4379-6.5913,9.2005-8.1122,14.8104      c-0.8392,3.0958-5.0844,5.1128-8.2023,4.1272c-2.0492-0.6478-3.8391-0.6746-5.6883,0.4964      c-1.101,0.6973-2.5443,0.8224-3.6193,0.2557c-5.6367-2.9715-11.8735-5.2723-14.0534-12.2769      c-1.4348-4.61-4.4856-8.5082-5.8739-13.1909c-0.718-2.4221-1.0486-4.8536-1.3802-7.3079      c-0.2128-1.5751-0.627-2.8815-2.7914-3.5472c-2.5139,5.9692,1.7485,11.6241,0.5828,17.6062      c-2.4329,2.1633-5.3835,4.3265-8.5253,5.2204c-3.3529,0.954-7.1815,0.6766-10.7733,0.0769      c-4.4393-0.7411-8.3137-0.2782-12.1376,2.725c-2.7894,2.1907-6.4276,4.0683-10.3339,1.5397      c-0.8646-0.5596-1.9469-0.3315-2.9374-0.3578c-1.149-0.0306-2.1773-0.2924-3.1472-0.984      c-3.6449-2.5988-3.6605-2.5769-6.5837,0.6058c-4.9832,0.7598-6.0285,0.1263-8.0416-4.9673      c-2.0788-1.4531-4.2867,0.9732-7.0897-0.3887c-1.0076-0.7019-1.933-2.1752-1.9802-4.2305      c-0.0749-3.262-1.7353-6.1699-2.0459-9.4526c-0.3277-3.4638,0.5588-6.3846,2.3619-9.0917      c0.8377-1.2578,1.4562-2.6009,2.1483-3.9069c1.3051-2.4628,1.0895-3.7023-1.1159-5.496      c-1.218-0.9905-1.8571-1.9061-1.3658-3.4717c1.5958-5.0855,3.2603-10.1622,6.8644-14.2424      c1.785-2.0208,2.9384-4.0604,3.2475-6.8645c0.2484-2.2538,1.4039-4.4811,2.8221-6.394c2.2167-2.9899,4.3248-5.9753,5.55-9.5994      c0.6053-1.7906,2.1163-3.3925,3.5179-4.7754c4.7859-4.7218,9.6266-9.3846,14.5864-13.9355      c4.4738-4.1047,9.29-7.7968,13.928-11.6416c4.5089-3.7377,8.7316-8.2123,14.342-10.4252      c10.6054-4.1831,21.325-8.1027,33.0164-7.5719c2.2913,0.1041,4.4082-0.729,6.6525-0.7917      c7.7823-0.2176,15.2847,1.4435,22.765,3.2921c3.6028,0.8903,7.245,1.637,10.8132,2.647      c4.0028,1.1331,8.0806,2.1819,11.8525,3.8757c1.986,0.8918,4.0722,1.0101,6.0096,1.8466      c8.0589,3.4795,16.0842,7.0444,23.775,11.2715c2.3731,1.3044,5.0107,1.1158,7.3939,2.3646      c9.4333,4.9427,18.5684,10.1595,26.6896,17.2583c7.3627,6.4357,13.5936,13.6796,19.0906,21.65      c2.7435,3.9778,4.2921,8.6281,6.774,12.7422c3.6614,6.0692,3.7045,13.2365,6.2791,19.6757      c1.2859,3.2161,2.2181,6.9874,2.2131,10.8329c-0.0037,2.8676,1.3562,5.7332,2.0729,8.6071      c0.4541,1.8207,1.1186,3.6979,0.9785,5.4665c-0.3442,4.3447,1.5891,8.2441,1.995,12.4316      c0.1705,1.7582,1.2997,3.4609,2.1496,5.1082c1.648,3.1941,3.4005,6.3345,5.1226,9.4901      c0.7367,1.35,1.7254,2.2499,3.3057,2.7766c3.9604,1.3201,7.4941,3.5638,11.9921,3.6465      c7.5546,0.1389,14.8625-5.2422,17.6427-27.3652c3.0823-24.5277,17.1662-26.4926,22.3937-25.1575      c10.9753,2.8032,13.1102,9.4961,13.1102,11.3386c0,7.9595,0.8972,7.9386,7.9134,12.1417      c2.3234,1.3918,5.5701,2.6116,6.6142,6.6142C364.7124,145.8378,361.9385,144.8124,360.2715,144.0426z M337.8305,127.369      c-1.6729-0.8427-3.6094-0.4448-4.7808,0.9929c-1.0598,1.3007-0.9477,2.7932-0.0854,3.9051      c1.3465,1.7362,3.9261,2.031,5.7402,0.4843C340.6546,131.0884,340.0077,128.4657,337.8305,127.369z M205.6282,283.9434      c-3.4858-1.3458-7.2116-2.389-10.7586-2.7333c-4.8464-0.4704-9.113-2.0328-13.4103-3.9131      c-7.4488-3.2593-11.377-9.3865-12.8126-16.9849c-0.7819-4.1382-1.7001-8.2379-2.8494-12.2486      c-2.1135-7.376-3.4695-14.9219-5.3843-22.3403c-0.9075-3.516-0.6055-7.2338-1.4373-10.9266      c-1.4594-6.4794-1.7099-13.2427-3.2891-19.7702c-0.5281-2.1832-0.2052-4.375,0.3822-6.6122      c1.2731-4.8489,1.3914-9.6503,0.1027-14.697c-1.1386-4.459-1.7992-9.1654,0.4009-13.8693      c0.9915-2.1199,3.2713-4.3606,1.398-7.7609c-3.0273,1.3884-5.8179,0.0568-8.6252-0.6529      c-4.7057-1.1896-5.9459-0.121-6.8378,4.7674c-0.7397,4.0545-0.6097,8.1486-1.2548,12.1968      c-0.4039,2.5344-0.3777,5.1744,0.2912,7.7822c1.2014,4.6833,3.9978,8.6896,5.1734,13.4462      c1.2357,4.9996,3.1841,9.8115,3.2055,15.0689c0.0035,0.8685,0.0504,1.7559,0.2315,2.6016      c1.3945,6.514,2.6469,13.0595,4.0656,19.5679c0.9922,4.5519,2.0704,9.0981,2.9761,13.6351      c1.0509,5.2642,3.0575,10.1736,4.2832,15.3441c1.6469,6.9478,2.5586,13.8191,1.4591,20.9012      c-0.4526,2.9153,3.7122,8.1508,6.2963,7.3417c4.9753-1.5576,8.6041,0.7905,12.4678,3.0731      c2.4318,1.4366,7.8124,4.1354,10.9706,3.9767c-0.7086-3.2598-1.6939-4.2532-3.1144-5.2806      c-2.6505-1.9171-6.5826-1.7105-8.0403-5.4545c4.4398,0.9023,8.363,3.3746,12.8149,3.87c4.4927,0.5,8.7748,2.976,13.6764,1.9967      C207.4413,284.7212,206.6169,284.3251,205.6282,283.9434z"></path>				</defs>				<clipPath id="SVGID_00000067214978031427021660000005689204980163682979_">					<use xlink:href="#SVGID_1_" style="overflow:visible;"></use>				</clipPath>									<linearGradient id="Verlauf_00000114763518328261724910000011117719095481882249_" gradientUnits="userSpaceOnUse" x1="15.2945" y1="157.9635" x2="368.6252" y2="157.9635" gradientTransform="matrix(1 0 0 -1 0 320)">					<stop offset="0.0088" style="stop-color:#EF3321"></stop>					<stop offset="0.1515" style="stop-color:#F28B18"></stop>					<stop offset="0.3147" style="stop-color:#F3EF15"></stop>					<stop offset="0.466" style="stop-color:#C1E01D"></stop>					<stop offset="0.6183" style="stop-color:#4ABB39"></stop>					<stop offset="0.788" style="stop-color:#5AC596"></stop>					<stop offset="0.9598" style="stop-color:#5AC9E8"></stop>				</linearGradient>									<rect id="Verlauf_00000063614256923006232870000007407487564737508008_" x="15.2945" y="9.137" style="clip-path:url(#SVGID_00000067214978031427021660000005689204980163682979_);fill:url(#Verlauf_00000114763518328261724910000011117719095481882249_);" width="353.3307" height="305.799"></rect>			</g>		</g>		<g>			<path class="st2" d="M363.775,137.9008c-9.1182-6.2835-11.1852-5.4341-10.3066-13.8898c0.3779-3.6378-0.2363-5.7165-4.441-7.9842    c-3.9756-2.1441-15.5669-12.6378-29.2084,0.5107c-11.0809,10.6805-7.6446,39.1135-16.5239,44.8437    c-5.0034,3.229-10.4784,0.9925-15.1151-1.5885c-5.1876-2.8876-7.6672-7.7332-8.6316-13.5822    c-0.8831-5.3552-2.2657-10.6355-3.4595-15.9288c-0.9227-4.0918-1.9562-8.1931-2.6666-12.318    c-1.0313-5.9896-2.593-11.8603-3.9214-17.7658c-1.3442-5.9762-3.6799-11.7275-6.2491-17.3879    c-6.775-14.9268-17.4324-26.5196-30.7249-35.5747c-9.2607-6.3086-18.9594-12.1246-29.6337-15.9483    c-4.6832-1.6776-8.8886-4.3231-13.2249-6.6491c-3.6904-1.9796-7.9736-2.5332-11.3196-5.3649    c-2.6375-2.2321-5.821-3.4705-9.4241-4.0683c-2.5848-0.4288-5.2623-1.2114-7.8462-2.1406    c-5.3041-1.9076-10.4731-4.2694-16.3796-4.3728c-3.5179-0.0615-7.1985-0.9739-10.4412-2.3582    c-1.6431-0.7014-3.1062-1.2482-4.8248-1.2565c-3.1199-0.015-6.2401-0.0213-9.3597,0.0093    c-0.8638,0.0084-1.9631-0.1506-2.5502,0.297c-3.4637,2.6407-7.8171,2.3785-11.6713,3.194    c-5.8041,1.2282-11.4941,2.9126-17.2884,4.1588c-1.9675,0.4232-4.1324,0.8809-5.8961,2.1065    c-3.8678,2.6878-7.6898,5.4418-11.5718,8.1086c-6.8021,4.6727-11.9102,11.1657-17.965,16.642    c-4.3872,3.968-9.186,7.4916-12.7601,12.3489c-2.2078,3.0005-5.1116,5.6711-6.4957,9.0529    c-1.3535,3.3071-3.155,6.1623-5.2339,8.9534c-1.4151,1.8999-2.7487,3.932-3.2139,6.2374    c-0.7421,3.6781-2.5224,6.6592-4.9885,9.397c-1.9114,2.1221-3.1692,4.5738-3.4548,7.561    c-0.2506,2.6219-1.3435,4.9848-3.2172,6.9937c-2.636,2.8262-2.7223,5.2391-0.2104,8.1513    c1.8086,2.0969,1.7944,3.9885,0.6554,6.4498c-1.5493,3.348-3.3894,6.9531-1.9573,10.6958    c0.8846,2.3118,1.2324,4.5231,1.1951,6.8893c-0.0302,1.914,0.025,3.6955,1.9303,4.9141    c1.1627,0.7436,1.0914,2.1406,1.1567,3.4009c0.0763,1.4729-0.1381,3.0175,0.9943,4.4914    c7.6782,4.0414,15.846,4.178,24.8921,2.2894c0.8109,0.6743,2.3812,1.2986,4.2081,1.0698    c1.3389-0.1678,2.4547,0.4103,3.3981,1.2701c2.2051,2.0096,4.485,2.4252,6.7469,0.3151c1.4954,0.8749,2.6763,1.8807,4.546,1.5956    c1.0274-1.9511,3.2223-1.618,4.8215-1.8936c2.1082-1.9659,2.4667-4.9304,5.1286-6.252c2.9819,2.0377,6.2218,2.3002,9.6157,1.2518    c0.5792-0.1789,1.1445-0.4423,1.7932-0.1389c2.7258,1.2751,5.0071,0.2696,7.3289-1.2454c1.9854-1.2955,4.2119-2.086,7.058-0.9741    c0.8529,4.2783-0.9559,8.0404-1.7703,11.8063c-1.1269,5.2105-2.9266,10.2633-2.5794,15.7023    c0.4246,6.6509-0.4303,13.2721,1.2733,19.9961c1.2136,4.79,0.5531,10.1558,0.0132,15.2595    c-0.5646,5.3377-0.8812,10.7317-0.2521,16.0422c0.9889,8.3478,0.5117,16.6863,0.3587,25.0182    c-0.1229,6.6948-0.9531,13.374-1.3157,20.0684c-0.1556,2.8733-0.4875,5.6807-1.1489,8.4825    c-0.9182,3.8902-1.4082,7.8533-1.0384,11.8588c0.2394,2.5933,1.0926,4.7376,3.9811,5.6394    c1.8522,0.5782,3.0124,2.1068,3.3932,4.0862c0.327,1.6992,0.8208,3.3452,0.9387,5.1127c0.1288,1.9307-0.066,4.2203,1.3898,5.6422    c1.6621,1.6235,2.6579,3.5522,3.6512,5.5251c0.7875,1.564,2.4667,3.2084,3.7946,1.6515    c2.6223-3.0744,2.9258-7.1247,3.3835-11.023c0.4357-3.711,0.7913-4.2621,4.5236-4.3425    c5.1453-0.1108,7.4124,0.1183,12.2708,1.7626c3.2741,1.1081,5.9651,3.0506,8.2348,3.1396    c4.8189,0.189,8.1134,1.2215,14.5512,2.7874c1.1971,0.2912-2.3543-7.4561-6.6142-10.5827    c-2.6209-1.9236-5.5573-3.2656-5.811-3.874c-1.0866-2.6051-3.7972-5.7044-6.2884-5.8588    c-5.2287-0.3241-12.0905-0.3699-15.7746-1.842c-2.5312-1.0114-5.905-4.4433-5.9888-11.0229    c-0.1808-14.1904-0.0543-28.3868,1.1512-42.5372c0.3615-4.2422,0.0116-8.5042,0.5131-12.7005    c0.8272-6.9214,1.322-13.8451,1.4611-20.8113c0.0867-4.3425,1.1288-8.5829,2.7165-12.5787    c2.0604-5.1852,4.6957-10.119,3.8914-16.024c-0.4944-3.6293,0.2798-7.1258,2.4036-10.6299    c4.9934,1.3583,9.0919-3.3981,14.5325-2.7296c-0.0488,3.8972,0.4672,7.4514-0.6057,11.008    c-1.7811,5.9052-0.7496,11.6198,1.8314,17.0269c3.8647,8.0965,6.5307,16.488,7.2752,25.4627    c0.1224,1.476,0.4972,2.9463,0.8909,4.3821c1.8735,6.833,2.4743,13.9097,3.9441,20.8265    c0.5123,2.4112,1.5921,4.7367,1.6506,7.1973c0.0961,4.0471,1.5759,7.7597,2.718,11.4984    c2.2543,7.3795,4.9097,14.6227,4.1085,22.539c-0.0624,0.6165-0.0245,1.2493,0.0246,1.8699    c0.4837,6.1087,4.3535,10.7762,9.881,11.819c4.1533,0.7834,8.1747,1.7953,11.7283,4.2896    c2.7056,1.899,5.7833,2.8364,9.1583,2.557c1.396-0.1155,2.6426,0.5739,3.941,0.8353c2.7151,0.5468,7.1878,4.1497,7.0566,2.7462    c-0.3223-3.4492-1.3377-8.7504-3.685-11.433c-0.9921-1.1339,16.2861,6.5341,21.6358,7.6714    c0.8051,0.1711-1.2376-6.3764-2.7382-7.8131c-2.2205-2.126-3.0236-8.6457-7.4173-10.1102    c-6.1176-2.0392-11.5202-1.9242-18.1337-1.937c-3.0385-0.0059-5.9971-1.8367-8.5875-3.2516    c-5.8398-3.1898-7.7374-8.94-9.0545-14.9785c-0.7591-3.4803-1.3584-7.0292-2.5083-10.3831    c-1.983-5.7837-3.3029-11.7197-4.1061-17.7243c-0.5911-4.419-1.3613-8.8317-2.241-13.1567    c-0.8856-4.3546-1.5705-8.8266-2.1098-13.1348c-0.9778-7.8119-1.5857-15.8892,0.7864-23.7151    c0.2971-0.98,0.4583-2.029,0.0495-2.9427c-2.084-4.6594-1.3489-9.5607-1.1097-14.3552c0.1334-2.6733,1.3026-5.2411,2.8984-7.5259    c1.153-1.6508,2.6227-2.5615,4.647-2.5866c1.3723-0.017,2.7449-0.1351,4.116-0.1151c5.7302,0.0836,11.4628,0.2661,16.9797-1.7513    c1.2448-0.4552,2.403-0.0893,3.5958,0.4542c2.5485,1.161,3.6951,3.5605,5.3339,5.749c4.5399,1.0985,9.1779,2.1034,11.5133,7.2156    c0.8383,1.835,2.8171,3.0894,5.2936,2.8241c1.3737-0.1471,2.7039,0.3715,3.9158,1.0751    c4.384,2.5457,8.9686,4.8915,12.6414,8.3855c3.3146,3.1532,6.6435,6.0659,10.7896,8.1261    c3.7552,1.866,6.5988,5.2368,10.48,6.9634c2.1606,0.9611,3.7594,2.364,4.6074,4.5809c0.6931,1.812,2.0147,2.639,3.925,2.998    c2.1772,0.4091,4.317,1.0304,6.0751,2.6196c0.9136,0.8259,2.3141,0.7837,3.4742,1.1506c2.8964,0.9161,6.0953-0.058,8.762,1.3273    c1.4456,0.751,2.8111,1.0715,4.2516,0.9006c4.2365-0.5027,8.3632-2.1522,12.7515-1.0303    c0.5166,0.1321,1.2061-0.2584,1.7739-0.5031c5.5577-2.3958,10.9824-4.8256,15.2841-9.4644    c3.4731-3.7453,5.0991-8.8611,9.3506-11.9404c0.2657-0.1924,0.5078-0.6599,0.4809-0.9755    c-0.2326-2.7318,1.6772-4.2684,3.2147-6.0532c0.6334-0.7354,1.0844-1.6544,1.5015-2.5446    c1.298-2.7697,2.032-5.7887,3.8035-8.3552c0.7789-1.1284,1.4059-2.3949,1.3848-3.8151    c-0.0338-2.2828,0.7787-4.3129,1.4105-6.4626c1.0309-3.5076,0.5421-5.7047,3.8377-5.5652    c18.4252,1.3228,15.1181-3.1653,24.3047-0.2719c1.6771,0.5282,3.6637,1.0755,4.5614-0.5313    C369.6166,144.6778,367.0141,140.1329,363.775,137.9008z M111.0969,181.5771c-1.1514,1.5576-1.7646,3.4588-2.0411,5.5224    c-1.0898,8.1325-1.6062,16.2972-2.2224,24.4723c-0.6176,8.1935-0.7514,16.3934-1.0632,24.577    c-0.4793,12.5781-0.1246,25.1862-0.2746,37.7797c-0.0432,3.6286,0.8581,7.0014,2.6185,9.9657    c1.8753,3.1577,5.4875,4.1512,8.8355,5.1061c6.5257,1.8613,7.3634,2.325,13.6921,4.806c2.586,1.0137,7.7953,0.5669,8.4331,5.5984    c-5.713-1.1834-13.831-3.2861-19.3465-4.8189c-5.6625-1.5737-9.4252-3.8976-14.1802-8.7628    c-1.5274,1.0578-1.2326,2.1067-0.6426,2.8867c1.0858,1.4359,1.5014,3.1561,2.1499,4.743    c1.4111,3.4527,0.4131,10.0622-1.3585,14.0307c-3.7559-2.9764-5.8589-13.2011-6.0945-19.2756    c-2.1484-0.0067-2.8425-0.6141-4.1348-3.1293c-0.3688-2.0471,0.8755-4.0311,1.5775-5.8425    c2.2855-5.8978,2.0954-11.9195,1.8974-17.9797c-0.0848-2.5978-0.0381-5.184-0.0482-7.7697    c-0.035-8.9678,1.5301-17.8928,0.9384-26.8355c-0.7652-11.5657-0.5085-23.1363-0.8799-34.6957    c-0.1187-3.6949-0.9686-7.5121-1.6904-11.2415c-1.0589-5.4708-1.2974-11.3765,0.4506-16.9944    c0.8091-2.6003,1.1787-5.3189,2.2047-7.8666c0.4279-1.0625,0.7644-2.1084,1.8764-2.6512    c2.3428-0.2302,2.0393,2.1219,2.9639,3.0975c0.9773,0.5023,1.7892,0.0657,2.6331,0.0078    c1.9233-0.132,3.8376,0.3109,4.5302,2.4011c0.5822,1.7569,1.6735,2.9991,3.0212,4.005    C115.9561,169.5469,115.3072,175.8818,111.0969,181.5771z M165.7972,248.0635c1.1493,4.0107,2.0676,8.1104,2.8494,12.2487    c1.4356,7.5984,5.3638,13.7256,12.8126,16.9849c4.2973,1.8803,8.5639,3.4427,13.4103,3.9131    c3.547,0.3442,7.2728,1.3875,10.7586,2.7333c0.9886,0.3817,1.8131,0.7778,2.3815,2.3251    c-4.9016,0.9792-9.1837-1.4967-13.6764-1.9967c-4.4518-0.4954-8.3751-2.9677-12.8149-3.87    c1.4577,3.744,5.3899,3.5374,8.0403,5.4545c1.4205,1.0275,2.4058,2.0208,3.1144,5.2807    c-3.1583,0.1587-8.5389-2.5401-10.9707-3.9767c-3.8637-2.2827-7.4925-4.6307-12.4678-3.0731    c-2.5841,0.809-6.7489-4.4265-6.2963-7.3417c1.0995-7.0821,0.1878-13.9534-1.4591-20.9012    c-1.2257-5.1705-3.2323-10.0799-4.2832-15.3441c-0.9058-4.5369-1.9839-9.0832-2.9761-13.6351    c-1.4187-6.5084-2.671-13.0539-4.0656-19.5679c-0.1811-0.8456-0.228-1.7331-0.2315-2.6016    c-0.0214-5.2574-1.9698-10.0693-3.2055-15.0689c-1.1756-4.7567-3.972-8.7629-5.1734-13.4462    c-0.6689-2.6078-0.6951-5.2478-0.2912-7.7822c0.6451-4.0482,0.5151-8.1423,1.2548-12.1968    c0.8918-4.8884,2.132-5.957,6.8378-4.7674c2.8073,0.7097,5.5978,2.0413,8.6252,0.6529c1.8733,3.4003-0.4066,5.641-1.398,7.7609    c-2.2001,4.7039-1.5395,9.4103-0.4009,13.8693c1.2886,5.0467,1.1704,9.8481-0.1027,14.697    c-0.5874,2.2372-0.9103,4.429-0.3822,6.6122c1.5792,6.5275,1.8297,13.2908,3.2891,19.7702    c0.8318,3.6928,0.5297,7.4106,1.4373,10.9266C162.3277,233.1416,163.6838,240.6874,165.7972,248.0635z M360.2715,144.0425    c-12.5315-5.7874-23.5157-6.1772-25.9961-5.3268c-0.8603,0.295,1.8217,1.8621,4.2874,2.374    c2.8121,0.5839,10.1723,0.8616,13.7156,2.4915c2.5392,1.168-5.0248,2.6319-11.377,1.6896    c-7.3315-1.0875-9.5718,2.8975-10.6218,8.7826c-0.3302,1.8509-0.51,3.5541-1.7134,5.1154    c-0.9752,1.265-1.2885,2.9065-1.8212,4.4312c-2.0876,5.9757-5.2388,11.5453-8.7252,16.7067    c-3.1827,4.7115-7.6514,8.461-12.4684,11.9391c-4.9631,3.5836-9.6194,5.3951-15.6846,5.0804    c-3.9724-0.2061-7.9289,0.1114-11.7755-1.2236c-0.5545-0.1924-1.3218-0.239-1.8351-0.008    c-3.5709,1.6071-5.9803-0.7341-8.8442-2.1799c-3.9288-1.9833-7.0801-4.6198-9.7687-8.0526    c-0.8565-1.0936-2.4829-1.6241-3.8143-2.2995c-5.9099-2.9978-10.4255-7.9605-16.006-11.3659    c-3.2022-1.954-4.876-4.647-5.7999-7.876c-0.4509-0.1539-0.7821-0.3745-0.8998-0.2916c-3.4278,2.413-5.9613,1.0371-8.1601-1.8712    c-0.4567-0.604-0.9916-1.2612-1.8001-1.1984c-2.56,0.1989-3.7575-1.5005-4.6365-3.1726    c-1.5212-0.8904-2.9627-0.4411-4.6404-0.8394c-1.3904-2.673-3.9244-3.7447-7.0215-4.8305    c-3.2076-1.1246-5.5511-4.4151-7.0563-7.809c-0.2485-0.5604-0.5033-1.118-0.77-1.71c-3.4685-1.0505-5.7455,0.7172-8.0251,3.3878    c-5.9907-0.6395-11.7853,0.684-17.6478,0.1327c-3.5897-0.3376-6.9326-1.6995-10.5896-1.9471    c-2.72-0.1842-5.1559-0.0782-7.538,1.0172c-1.2426,0.5714-2.3052,0.8681-3.4598-0.0384    c-0.9503-0.7462-2.1171-0.8258-3.2166-0.7303c-2.1879,0.1899-3.8269-0.7244-5.1725-2.1255    c-1.9401-5.2965,3.6523-7.5219,4.6257-11.6154c-1.1838-1.8649-2.8184-1.2327-4.3535-1.0345    c-3.7019,4.4379-6.5913,9.2005-8.1122,14.8104c-0.8392,3.0958-5.0844,5.1128-8.2023,4.1272    c-2.0492-0.6478-3.8391-0.6746-5.6883,0.4964c-1.101,0.6973-2.5443,0.8224-3.6193,0.2557    c-5.6367-2.9715-11.8735-5.2723-14.0534-12.2769c-1.4348-4.61-4.4856-8.5082-5.8739-13.1909    c-0.718-2.4221-1.0486-4.8536-1.3802-7.3079c-0.2128-1.5751-0.627-2.8815-2.7914-3.5472    c-2.5139,5.9692,1.7485,11.6241,0.5828,17.6062c-2.4329,2.1633-5.3835,4.3265-8.5253,5.2204    c-3.3529,0.954-7.1815,0.6766-10.7733,0.0769c-4.4393-0.7411-8.3137-0.2782-12.1376,2.725    c-2.7894,2.1907-6.4276,4.0683-10.3339,1.5397c-0.8646-0.5596-1.9469-0.3315-2.9374-0.3578    c-1.149-0.0306-2.1773-0.2924-3.1472-0.984c-3.6449-2.5988-3.6605-2.5769-6.5837,0.6058    c-4.9832,0.7598-6.0285,0.1263-8.0416-4.9673c-2.0788-1.4531-4.2867,0.9732-7.0897-0.3887    c-1.0076-0.7019-1.933-2.1752-1.9802-4.2305c-0.0749-3.262-1.7353-6.1699-2.0459-9.4526    c-0.3277-3.4638,0.5588-6.3846,2.3619-9.0917c0.8377-1.2578,1.4562-2.6009,2.1483-3.9069    c1.3051-2.4628,1.0895-3.7023-1.1159-5.496c-1.218-0.9905-1.8571-1.9061-1.3658-3.4717    c1.5958-5.0855,3.2603-10.1622,6.8644-14.2424c1.785-2.0208,2.9384-4.0604,3.2475-6.8645    c0.2484-2.2538,1.4039-4.4811,2.8221-6.394c2.2167-2.9899,4.3248-5.9753,5.55-9.5994c0.6053-1.7906,2.1163-3.3925,3.5179-4.7754    c4.7859-4.7218,9.6266-9.3846,14.5864-13.9355c4.4738-4.1047,9.29-7.7968,13.928-11.6416    c4.5089-3.7377,8.7316-8.2123,14.342-10.4252c10.6054-4.1831,21.325-8.1027,33.0164-7.5719    c2.2913,0.1041,4.4082-0.729,6.6525-0.7917c7.7823-0.2176,15.2847,1.4435,22.765,3.2921c3.6028,0.8903,7.245,1.637,10.8132,2.647    c4.0028,1.1331,8.0806,2.1819,11.8525,3.8757c1.986,0.8918,4.0722,1.0101,6.0096,1.8466    c8.0589,3.4795,16.0842,7.0444,23.775,11.2715c2.3731,1.3044,5.0107,1.1158,7.3939,2.3646    c9.4333,4.9427,18.5684,10.1595,26.6896,17.2583c7.3627,6.4357,13.5936,13.6796,19.0906,21.65    c2.7435,3.9778,4.2921,8.6281,6.774,12.7422c3.6614,6.0692,3.7045,13.2365,6.2791,19.6757    c1.2859,3.2161,2.2181,6.9874,2.2131,10.8329c-0.0037,2.8676,1.3562,5.7332,2.0729,8.6071    c0.4541,1.8207,1.1186,3.6979,0.9785,5.4665c-0.3442,4.3447,1.5891,8.2441,1.9951,12.4316    c0.1705,1.7582,1.2997,3.4609,2.1496,5.1082c1.648,3.1941,3.4005,6.3345,5.1226,9.4901c0.7367,1.35,1.7254,2.2499,3.3057,2.7766    c3.9604,1.3201,7.4941,3.5638,11.9921,3.6465c7.5546,0.1389,14.8625-5.2422,17.6427-27.3652    c3.0823-24.5277,17.1662-26.4926,22.3937-25.1575c10.9753,2.8032,13.1103,9.496,13.1103,11.3386    c0,7.9595,0.8972,7.9386,7.9134,12.1417c2.3234,1.3918,5.57,2.6117,6.6142,6.6142    C364.7124,145.8378,361.9385,144.8124,360.2715,144.0425z"></path>			<path class="st2" d="M327.0838,129.1833c-1.0634,1.6887,2.306,0.7921,2.7986,2.1506c2.3386,6.4489,9.1765,4.8558,12.4363,1.2771    c1.4186-1.5574,5.0883,2.5675,4.3228,0C343.5589,122.2709,331.7242,121.8142,327.0838,129.1833z M338.7046,132.7512    c-1.814,1.5468-4.3937,1.252-5.7402-0.4843c-0.8623-1.1119-0.9744-2.6044,0.0854-3.9051    c1.1713-1.4377,3.1079-1.8355,4.7808-0.9929C340.0077,128.4657,340.6546,131.0884,338.7046,132.7512z"></path>			<path class="st2" d="M324.6773,132.9479c-2.8347-0.3543-4.5232,3.0157-3.8978,5.3427c0.7046,2.622,2.2444,2.9567,3.5392,1.9488    C326.1011,138.852,325.9079,133.1017,324.6773,132.9479z"></path>			<ellipse class="st2" cx="335.9991" cy="130.2191" rx="1.0969" ry="1.0358"></ellipse>		</g>	</g>	<path class="st2" d="M937.2295,221.8934c-9.2393-7.2822-24.316-11.5789-44.7769-11.5789c-20.4639,0-38.415,2.3962-52.4882,9.6257  c-14.0781,7.2314-21.9597,17.9609-26.7116,32.0078c-1.7266,5.1023-2.4105,10.0235-2.158,14.5749h-59.5949  c-3.826,4.795-10.2836,12-25.2992,12c-15.0166,0-16.7645-9.784-12.8504-21.3543c2.52-8.0973,10.7717-28.3464,31.6535-28.2519  c14.4257,0.0652,15.9487,8.8921,12.8032,18.189h41.2917c3.9844-11.7764,0.9719-19.2605-7.4933-26.9672  c-8.5182-7.7549-26.0013-9.8238-45.137-9.8238c-20.4639,0-31.7053,1.0733-45.7795,8.3028  c-14.0771,7.2314-22.8849,16.2839-27.6378,30.3307c-1.9847,5.8675-2.837,11.9433-2.5162,17.5748h-24.5223l8.4159-24.8746  c3.3193-9.8115,2.6161-17.4631-6.0388-23.7396c-6.189-4.4882-15.3071-7.5947-31.3937-7.5942  c-24.2822,0.0009-35.9291,6.8855-44.5801,13.3245c-2.2623-6.5807-16.7789-13.3245-34.2955-13.3245  c-24.2087,0-31.956,5.5703-37.8408,9.9091l0.2834-7.3947h-40.1102l-18.6887,53.6939h-58.768  c-1.9497,3.4642-5.8427,8.0261-10.0331,10.1941c-4.1953,2.1699-9.8931,3.4891-17.252,3.4025  c-6.0236-0.0709-9.5401-2.0024-12.2818-4.9982c-2.7402-2.9941-3.315-7.7186-1.3228-13.6063l84.6671,0.0945l2.9234-7.8752  c4.5355-13.0066,1.8926-26.0137-6.9921-33.0381c-8.8857-7.0244-22.2625-10.4409-43.6063-10.4409  c-20.4639,0-37.2339,2.1248-51.3071,9.3543c-14.0781,7.2314-22.3189,17.4177-27.0709,31.4646  c-4.8584,14.3584-1.3098,28.784,8.2205,35.8583c9.5303,7.0762,24.4157,9.5665,46.0563,9.5665  c20.6084,0,33.1514-0.1616,45.7862-5.7397c4.0029-1.7678,7.6501-4.1749,10.8489-6.8504h24.0804l-3.735,10.7308h44.0609  l15.1747-44.851c4.2856-11.2341,18.0771-17.5966,27.7447-18.8521c7.2756-0.9449,11.9619,0.7774,13.6747,2.8936  c1.7129,2.1182-0.3802,8.0263-1.5677,11.537l-16.6699,49.2724h31.9434h9.8825l15.1746-44.851  c4.2856-11.2341,18.0771-17.5966,27.7447-18.8521c7.2756-0.9449,11.9619,0.7774,13.6747,2.8936  c1.7129,2.1182-0.3802,8.0263-1.5677,11.537l-16.6699,49.2724H636.5l3.6306-10.7308h37.0275  c0.5816,0.6169,1.1904,1.2068,1.8503,1.7435c11.0508,8.9873,25.0823,10.8467,44.4688,10.8467c19.1357,0,33.2435,0,45.8105-6.0705  c4.1753-2.0169,7.7003-4.1979,10.6985-6.5197h38.5024c0.7076,0.7124,1.4456,1.4,2.2479,2.0315  c9.1807,7.2324,25.3153,10.5528,45.7792,10.5528c20.4609,0,37.1395-0.8611,51.3074-8.1434s23.8633-20.6701,28.582-34.6154  C951.1224,239.7889,946.4697,229.1756,937.2295,221.8934z M374.8935,227.0268c6.1826,0,10.7943,1.7734,13.4174,4.252  c2.6172,2.4795,2.1885,7.1945,0.7559,11.4279h-40.5267C353.2686,233.5142,361.0547,227.0268,374.8935,227.0268z M901.3817,258.1606  c-6.8673,14.337-16.7487,20.5512-31.3229,20.5512c-14.4287,0-19.4191-8.9679-16.5244-20.8347  c3.7685-15.4488,13.2645-28.6299,33.3905-28.6299C908.61,229.2473,909.4604,241.2945,901.3817,258.1606z"></path>	<g class="st3">		<path d="M394.4277,150.502l6.3242-38.7959h5.3711l-3.1367,19.2393l23.3145-19.2393h7.2881l-19.6133,15.7363l14.0322,23.0596   h-7.0938l-11.2285-19.6182l-7.6953,6.1738l-2.1914,13.4443H394.4277z"></path>		<path d="M431.7578,150.502l4.582-28.1045h4.4932l-0.6475,3.9697c1.3311-1.5439,2.8398-2.6963,4.5273-3.46   c1.6865-0.7637,3.541-1.1445,5.5654-1.1445c1.5732,0,2.9893,0.2422,4.249,0.7275c1.2578,0.4854,2.2344,1.1211,2.9258,1.9053   c0.6924,0.7852,1.1396,1.8047,1.3398,3.0566c0.2002,1.2529,0.0898,3.1758-0.333,5.7686l-2.8174,17.2812h-4.9648l2.7891-17.1133   c0.3369-2.0664,0.3574-3.5771,0.0625-4.5303c-0.2949-0.9541-0.8779-1.6914-1.75-2.2129c-0.873-0.5205-1.9404-0.7812-3.2012-0.7812   c-2.3877,0-4.4033,0.6982-6.0498,2.0928c-1.6465,1.3955-2.7471,3.7891-3.2988,7.1787l-2.5049,15.3662H431.7578z"></path>		<path d="M463.71,136.4492c0.791-4.8506,2.6885-8.5117,5.6934-10.9814c3.0039-2.4707,6.499-3.7051,10.4854-3.7051   c3.9189,0,6.9951,1.2344,9.2275,3.7051c2.2314,2.4697,2.9678,6.0332,2.209,10.6904c-0.8232,5.0459-2.7305,8.8047-5.7227,11.2734   c-2.9922,2.4707-6.4932,3.7051-10.5029,3.7051c-3.9414,0-7.0225-1.2393-9.2412-3.7178   C463.6387,144.9404,462.9219,141.2832,463.71,136.4492z M468.8145,136.4365c-0.5938,3.6387-0.1904,6.3457,1.21,8.1211   c1.3994,1.7754,3.3486,2.6621,5.8486,2.6621c2.3428,0,4.499-0.8965,6.4688-2.6885c1.9707-1.793,3.25-4.4912,3.8379-8.0947   c0.5898-3.6201,0.1846-6.3193-1.2148-8.0947c-1.4004-1.7744-3.3496-2.6631-5.8496-2.6631c-2.3652,0-4.5264,0.8926-6.4844,2.6768   C470.6738,130.1396,469.4014,132.833,468.8145,136.4365z"></path>		<path d="M500.2891,150.502l-4.457-28.1045h5.1543l2.041,16.2217l0.748,6.0342l2.5-5.7959l7.3516-16.46h5.1465l1.7207,16.3018   l0.6055,5.3721l2.5693-5.4248l7.6699-16.249h4.8643l-13.7656,28.1045h-5.1895l-1.9531-16.8311l-0.334-4.7891l-9.4707,21.6201   H500.2891z"></path>		<path d="M535.8105,150.502l4.582-28.1045h4.9658l-4.5811,28.1045H535.8105z M541.2422,117.1836l0.8936-5.4775h4.9658   l-0.8936,5.4775H541.2422z"></path>		<path d="M548.4121,150.502l4.582-28.1045h4.4932l-0.6475,3.9697c1.3311-1.5439,2.8398-2.6963,4.5273-3.46   c1.6865-0.7637,3.541-1.1445,5.5654-1.1445c1.5732,0,2.9893,0.2422,4.249,0.7275c1.2578,0.4854,2.2344,1.1211,2.9258,1.9053   c0.6924,0.7852,1.1396,1.8047,1.3398,3.0566c0.2002,1.2529,0.0898,3.1758-0.333,5.7686l-2.8174,17.2812h-4.9648l2.7891-17.1133   c0.3369-2.0664,0.3574-3.5771,0.0625-4.5303c-0.2949-0.9541-0.8779-1.6914-1.75-2.2129c-0.873-0.5205-1.9404-0.7812-3.2012-0.7812   c-2.3877,0-4.4033,0.6982-6.0498,2.0928c-1.6465,1.3955-2.7471,3.7891-3.2988,7.1787l-2.5049,15.3662H548.4121z"></path>		<path d="M578.6074,152.8311l4.752,0.6875c-0.0215,1.5088,0.4717,2.6309,1.4785,3.3682c1.0059,0.7363,2.5098,1.1045,4.5146,1.1045   c2.1846,0,3.9922-0.4111,5.4209-1.2305c1.4287-0.8203,2.5127-2.043,3.25-3.666c0.4531-0.9883,0.9395-3.0703,1.457-6.2471   c-1.2773,1.21-2.6426,2.1211-4.0947,2.7334c-1.4502,0.6143-2.999,0.9209-4.6436,0.9209c-3.5117,0-6.2393-1.1641-8.1797-3.4932   c-2.2207-2.6816-2.9639-6.2715-2.2305-10.7715c0.4912-3.0166,1.5078-5.6533,3.0469-7.9121   c1.5391-2.2578,3.3457-3.916,5.4219-4.9756c2.0762-1.0586,4.2959-1.5869,6.6611-1.5869c1.7344,0,3.2617,0.333,4.583,0.998   c1.3223,0.667,2.4258,1.666,3.3125,2.998l0.5479-3.3613H608.5l-3.96,24.293c-0.7051,4.3232-1.6572,7.4053-2.8594,9.25   c-1.2012,1.8438-2.9141,3.2988-5.1367,4.3662c-2.2236,1.0674-4.7773,1.6006-7.6602,1.6006c-3.8057,0-6.6035-0.8027-8.3916-2.4072   C578.7051,157.8936,578.0762,155.6709,578.6074,152.8311z M585.4805,135.9463c-0.6025,3.6963-0.2637,6.3945,1.0176,8.0918   c1.2803,1.6982,3.0479,2.5479,5.3057,2.5479c2.2568,0,4.3105-0.832,6.1621-2.4951c1.8506-1.6621,3.0713-4.3057,3.6631-7.9326   c0.5762-3.5371,0.1914-6.167-1.1504-7.8926c-1.3447-1.7246-3.1787-2.5869-5.5039-2.5869c-2.0762,0-4.0391,0.8623-5.8887,2.5869   C587.2363,129.9912,586.0342,132.5508,585.4805,135.9463z"></path>		<path d="M625.541,161.2734l6.3369-38.876h4.5947l-0.5957,3.6523c1.3721-1.5176,2.7979-2.6113,4.2783-3.2822   c1.4805-0.6699,3.1094-1.0049,4.8867-1.0049c2.3164,0,4.3193,0.5381,6.0107,1.6143c1.6904,1.0752,2.9248,2.7119,3.7021,4.9092   c0.7764,2.1963,0.9141,4.8379,0.4111,7.9258c-0.7793,4.7803-2.6582,8.4639-5.6348,11.0488   c-2.9785,2.584-6.1895,3.876-9.6367,3.876c-1.5312,0-2.9111-0.3086-4.1387-0.9258c-1.2285-0.6182-2.2354-1.4912-3.0195-2.6201   l-2.2305,13.6826H625.541z M634.0938,136.6084c-0.5928,3.6348-0.2539,6.3115,1.0156,8.0322   c1.2695,1.7197,3.0059,2.5791,5.208,2.5791c2.1113,0,4.1104-0.8906,5.9951-2.6729c1.8867-1.7812,3.1318-4.5342,3.7393-8.2559   c0.5977-3.6699,0.2656-6.3867-0.9971-8.1504c-1.2617-1.7646-3.0059-2.6475-5.2295-2.6475c-2,0-3.9736,0.9482-5.9238,2.8457   C635.9531,130.2354,634.6826,132.9922,634.0938,136.6084z"></path>		<path d="M678.5703,147.0352c-1.8887,1.3584-3.7891,2.3818-5.7031,3.0693c-1.9141,0.6885-3.8398,1.0322-5.7754,1.0322   c-3.0645,0-5.3896-0.7227-6.9775-2.1689c-1.5889-1.4473-2.1836-3.3975-1.7842-5.8486c0.2646-1.624,0.9268-3.0615,1.9873-4.3135   c1.0596-1.2529,2.3916-2.2324,3.9932-2.9385c1.6006-0.7051,3.9375-1.2256,7.0107-1.5615c4.1299-0.4648,7.1934-1.0215,9.1904-1.667   l0.2324-1.2178c0.3125-1.9219,0.0938-3.2725-0.6582-4.0479c-1.0547-1.1299-2.8652-1.6943-5.4326-1.6943   c-2.3203,0-4.1162,0.3779-5.3867,1.1309c-1.2715,0.7529-2.3467,2.167-3.2256,4.2412l-4.7949-0.6348   c1.1895-3.0166,2.9609-5.2139,5.3135-6.5889c2.3525-1.377,5.5107-2.0645,9.4756-2.0645c3.085,0,5.4326,0.4531,7.041,1.3623   s2.5342,2.0342,2.7773,3.375c0.2422,1.3408,0.1543,3.2988-0.2656,5.874l-1.0352,6.3516   c-0.7246,4.4463-1.0742,7.2471-1.0479,8.4014c0.0254,1.1562,0.2637,2.2812,0.7158,3.375h-5.2012   C678.6582,149.5322,678.5088,148.377,678.5703,147.0352z M679.8994,136.3965c-1.9395,0.7061-4.752,1.3066-8.4355,1.7998   c-2.1396,0.2822-3.6572,0.6045-4.5498,0.9658c-0.8916,0.3623-1.623,0.873-2.1924,1.5352   c-0.5693,0.6611-0.9248,1.4248-1.0654,2.2891c-0.2188,1.3408,0.1348,2.4131,1.0645,3.2148   c0.9258,0.8037,2.3242,1.2051,4.1943,1.2051c1.7793,0,3.4551-0.3613,5.0244-1.0859c1.5713-0.7227,2.8145-1.6885,3.7334-2.8975   c0.917-1.208,1.5654-2.9688,1.9424-5.2793L679.8994,136.3965z"></path>		<path d="M688.6484,161.2734l6.3379-38.876h4.5947l-0.5957,3.6523c1.3721-1.5176,2.7979-2.6113,4.2783-3.2822   c1.4805-0.6699,3.1094-1.0049,4.8867-1.0049c2.3164,0,4.3193,0.5381,6.0098,1.6143c1.6914,1.0752,2.9258,2.7119,3.7031,4.9092   c0.7764,2.1963,0.9141,4.8379,0.4111,7.9258c-0.7793,4.7803-2.6582,8.4639-5.6348,11.0488   c-2.9785,2.584-6.1904,3.876-9.6357,3.876c-1.5312,0-2.9121-0.3086-4.1396-0.9258c-1.2285-0.6182-2.2354-1.4912-3.0195-2.6201   l-2.2295,13.6826H688.6484z M697.2021,136.6084c-0.5928,3.6348-0.2539,6.3115,1.0156,8.0322   c1.2695,1.7197,3.0059,2.5791,5.208,2.5791c2.1113,0,4.1104-0.8906,5.9961-2.6729c1.8857-1.7812,3.1309-4.5342,3.7383-8.2559   c0.5977-3.6699,0.2656-6.3867-0.9971-8.1504c-1.2617-1.7646-3.0059-2.6475-5.2295-2.6475c-2,0-3.9736,0.9482-5.9238,2.8457   C699.0615,130.2354,697.791,132.9922,697.2021,136.6084z"></path>		<path d="M743.5342,141.4512l5.0371,0.6094c-1.3457,2.999-3.2627,5.2617-5.752,6.7871c-2.4902,1.5264-5.3896,2.2891-8.7002,2.2891   c-4.168,0-7.3389-1.2393-9.5127-3.7178c-2.1758-2.4785-2.8818-6.0557-2.1201-10.7314c0.791-4.8506,2.6953-8.5508,5.7129-11.1016   c3.0166-2.5488,6.5186-3.8232,10.5049-3.8232c3.8057,0,6.7773,1.2529,8.915,3.7578c2.1348,2.5049,2.8174,6.1299,2.0439,10.876   l-0.2412,1.2705h-21.959c-0.3125,3.1582,0.2334,5.54,1.6387,7.1455s3.3008,2.4072,5.6885,2.4072   C738.5283,147.2197,741.4434,145.2979,743.5342,141.4512z M728.4053,133.75h16.4189c0.1709-2.4336-0.1973-4.251-1.1045-5.4512   c-1.3154-1.7461-3.2109-2.6201-5.6885-2.6201c-2.2295,0-4.251,0.7275-6.0645,2.1836   C730.1523,129.3184,728.9648,131.2803,728.4053,133.75z"></path>		<path d="M753.5117,150.502l4.582-28.1045h4.4932l-0.6943,4.2607c1.4707-1.9756,2.7363-3.2852,3.7988-3.9297   c1.0615-0.6445,2.1895-0.9658,3.3838-0.9658c1.667,0,3.2842,0.5117,4.8516,1.5342l-2.4102,4.4199   c-1.126-0.6875-2.2764-1.0322-3.4463-1.0322c-1.0596,0-2.0742,0.291-3.0479,0.873c-0.9736,0.583-1.7256,1.3945-2.2549,2.4355   c-0.9268,1.8164-1.5576,3.748-1.8906,5.7949l-2.3984,14.7139H753.5117z"></path>		<path d="M792.7344,150.502h-4.6289l6.3252-38.7959h5l-2.2568,13.8408c1.2656-1.2705,2.6191-2.2188,4.0615-2.8447   c1.4424-0.627,2.9854-0.9395,4.6299-0.9395c2.2969,0,4.2979,0.5381,6.0039,1.6143c1.7041,1.0752,2.9414,2.708,3.7109,4.8955   s0.9004,4.8428,0.3916,7.9648c-0.7764,4.7637-2.6514,8.4385-5.6211,11.0234c-2.9707,2.584-6.1592,3.876-9.5654,3.876   c-1.7148,0-3.1973-0.3486-4.4482-1.0449c-1.252-0.6963-2.2617-1.7334-3.0293-3.1104L792.7344,150.502z M794.9854,136.2373   c-0.4746,2.9111-0.4922,5.0908-0.0498,6.5371c0.4414,1.4473,1.2217,2.5498,2.3389,3.3086   c1.1191,0.7578,2.4346,1.1367,3.9473,1.1367c2.0537,0,4.0254-0.9033,5.9121-2.7119s3.123-4.5117,3.71-8.1113   c0.6016-3.6865,0.2754-6.3955-0.9785-8.124c-1.2539-1.7295-2.998-2.5938-5.2344-2.5938c-2.0547,0-4.0371,0.9053-5.9463,2.7129   C796.7754,130.2002,795.543,132.8164,794.9854,136.2373z"></path>		<path d="M841.3027,141.4512l5.0371,0.6094c-1.3457,2.999-3.2627,5.2617-5.752,6.7871c-2.4902,1.5264-5.3906,2.2891-8.7012,2.2891   c-4.166,0-7.3379-1.2393-9.5117-3.7178c-2.1758-2.4785-2.8818-6.0557-2.1191-10.7314c0.79-4.8506,2.6943-8.5508,5.7119-11.1016   c3.0166-2.5488,6.5186-3.8232,10.5049-3.8232c3.8057,0,6.7773,1.2529,8.915,3.7578c2.1357,2.5049,2.8174,6.1299,2.0439,10.876   l-0.2412,1.2705h-21.959c-0.3125,3.1582,0.2334,5.54,1.6387,7.1455s3.3008,2.4072,5.6885,2.4072   C836.2969,147.2197,839.2119,145.2979,841.3027,141.4512z M826.1738,133.75h16.4189c0.1709-2.4336-0.1963-4.251-1.1045-5.4512   c-1.3154-1.7461-3.2109-2.6201-5.6885-2.6201c-2.2295,0-4.251,0.7275-6.0645,2.1836   C827.9209,129.3184,826.7334,131.2803,826.1738,133.75z"></path>		<path d="M863.0576,146.2412l-0.0107,4.208c-1.4199,0.2822-2.6816,0.4229-3.7852,0.4229c-1.7344,0-3.0869-0.2686-4.0576-0.8066   c-0.9717-0.5381-1.5781-1.2744-1.8193-2.21c-0.2422-0.9355-0.1348-2.7959,0.3193-5.584l2.6357-16.1689h-3.6484l0.6045-3.7051   h3.6484l1.1348-6.96l5.4316-2.8584l-1.6006,9.8184h5.0342l-0.6045,3.7051h-5.0332l-2.6797,16.4336   c-0.2471,1.5176-0.2598,2.4971-0.0391,2.9375c0.3242,0.6348,1.0723,0.9531,2.2432,0.9531   C861.3936,146.4268,862.1357,146.3652,863.0576,146.2412z"></path>		<path d="M878.834,146.2412l-0.0107,4.208c-1.4199,0.2822-2.6816,0.4229-3.7852,0.4229c-1.7344,0-3.0869-0.2686-4.0576-0.8066   c-0.9717-0.5381-1.5781-1.2744-1.8193-2.21c-0.2422-0.9355-0.1348-2.7959,0.3193-5.584l2.6367-16.1689h-3.6484l0.6035-3.7051   h3.6484l1.1348-6.96l5.4316-2.8584l-1.6006,9.8184h5.0342l-0.6035,3.7051h-5.0352l-2.6787,16.4336   c-0.2471,1.5176-0.2607,2.4971-0.0391,2.9375c0.3242,0.6348,1.0723,0.9531,2.2432,0.9531   C877.1699,146.4268,877.9121,146.3652,878.834,146.2412z"></path>		<path d="M904.4111,141.4512l5.0371,0.6094c-1.3457,2.999-3.2627,5.2617-5.752,6.7871c-2.4902,1.5264-5.3896,2.2891-8.7002,2.2891   c-4.168,0-7.3389-1.2393-9.5127-3.7178c-2.1758-2.4785-2.8818-6.0557-2.1201-10.7314c0.791-4.8506,2.6953-8.5508,5.7129-11.1016   c3.0166-2.5488,6.5186-3.8232,10.5049-3.8232c3.8057,0,6.7773,1.2529,8.915,3.7578c2.1348,2.5049,2.8174,6.1299,2.0439,10.876   l-0.2412,1.2705h-21.959c-0.3125,3.1582,0.2334,5.54,1.6387,7.1455s3.3008,2.4072,5.6885,2.4072   C899.4053,147.2197,902.3203,145.2979,904.4111,141.4512z M889.2822,133.75h16.4189c0.1709-2.4336-0.1973-4.251-1.1045-5.4512   c-1.3154-1.7461-3.2109-2.6201-5.6885-2.6201c-2.2295,0-4.251,0.7275-6.0645,2.1836   C891.0293,129.3184,889.8418,131.2803,889.2822,133.75z"></path>		<path d="M914.3887,150.502l4.582-28.1045h4.4932l-0.6943,4.2607c1.4707-1.9756,2.7363-3.2852,3.7988-3.9297   c1.0615-0.6445,2.1895-0.9658,3.3838-0.9658c1.667,0,3.2842,0.5117,4.8516,1.5342l-2.4102,4.4199   c-1.126-0.6875-2.2764-1.0322-3.4463-1.0322c-1.0596,0-2.0742,0.291-3.0479,0.873c-0.9736,0.583-1.7256,1.3945-2.2549,2.4355   c-0.9268,1.8164-1.5576,3.748-1.8906,5.7949l-2.3984,14.7139H914.3887z"></path>		<path d="M934.8281,150.502l0.8838-5.4248h5.6758l-0.8838,5.4248H934.8281z M937.6484,140.8691l1.8311-20.5625l1.4023-8.6006   h6.1826l-1.4023,8.6006l-4.7715,20.5625H937.6484z"></path>	</g></g></svg>